<?xml version="1.0" encoding="UTF-8" standalone="no"?>
<!DOCTYPE svg PUBLIC "-//W3C//DTD SVG 1.1//EN"
 "http://www.w3.org/Graphics/SVG/1.1/DTD/svg11.dtd">
<!-- Generated by graphviz version 2.40.1 (20161225.0304)
 -->
<!-- Title: dependencies Pages: 1 -->
<svg width="598pt" height="290pt"
 viewBox="0.00 0.00 598.00 290.00" xmlns="http://www.w3.org/2000/svg" xmlns:xlink="http://www.w3.org/1999/xlink">
<g id="graph0" class="graph" transform="scale(1 1) rotate(0) translate(4 286)">
<title>dependencies</title>
<polygon fill="#ffffff" stroke="transparent" points="-4,4 -4,-286 594,-286 594,4 -4,4"/>
<text text-anchor="start" x="274.0091" y="-42.4" font-family="sans-serif" font-weight="bold" font-size="14.00" fill="#000000">Legend</text>
<polygon fill="#ffffb3" stroke="transparent" points="61,-10 61,-30 81,-30 81,-10 61,-10"/>
<text text-anchor="start" x="84.629" y="-15.4" font-family="sans-serif" font-size="14.00" fill="#000000"> &#160;Declarations</text>
<polygon fill="#8dd3c7" stroke="transparent" points="174,-10 174,-30 194,-30 194,-10 174,-10"/>
<text text-anchor="start" x="197.7251" y="-15.4" font-family="sans-serif" font-size="14.00" fill="#000000"> &#160;Module</text>
<polygon fill="#80b1d3" stroke="transparent" points="260,-10 260,-30 280,-30 280,-10 260,-10"/>
<text text-anchor="start" x="283.7812" y="-15.4" font-family="sans-serif" font-size="14.00" fill="#000000"> &#160;Bootstrap</text>
<polygon fill="#fdb462" stroke="transparent" points="357,-10 357,-30 377,-30 377,-10 357,-10"/>
<text text-anchor="start" x="380.6732" y="-15.4" font-family="sans-serif" font-size="14.00" fill="#000000"> &#160;Providers</text>
<polygon fill="#fb8072" stroke="transparent" points="453,-10 453,-30 473,-30 473,-10 453,-10"/>
<text text-anchor="start" x="476.7258" y="-15.4" font-family="sans-serif" font-size="14.00" fill="#000000"> &#160;Exports</text>
<g id="clust1" class="cluster">
<title>cluster_AppModule</title>
<polygon fill="none" stroke="#000000" stroke-dasharray="1,5" points="8,-70 8,-274 270,-274 270,-70 8,-70"/>
</g>
<g id="clust2" class="cluster">
<title>cluster_AppModule_declarations</title>
<polygon fill="none" stroke="#000000" points="16,-78 16,-130 138,-130 138,-78 16,-78"/>
</g>
<g id="clust4" class="cluster">
<title>cluster_AppModule_imports</title>
<polygon fill="none" stroke="#000000" points="146,-78 146,-130 262,-130 262,-78 146,-78"/>
</g>
<g id="clust6" class="cluster">
<title>cluster_AppModule_bootstrap</title>
<polygon fill="none" stroke="#000000" points="77,-214 77,-266 201,-266 201,-214 77,-214"/>
</g>
<g id="clust8" class="cluster">
<title>cluster_UploadModule</title>
<polygon fill="none" stroke="#000000" stroke-dasharray="1,5" points="278,-138 278,-206 582,-206 582,-138 278,-138"/>
</g>
<g id="clust9" class="cluster">
<title>cluster_UploadModule_declarations</title>
<polygon fill="none" stroke="#000000" points="436,-146 436,-198 574,-198 574,-146 436,-146"/>
</g>
<g id="clust12" class="cluster">
<title>cluster_UploadModule_exports</title>
<polygon fill="none" stroke="#000000" points="286,-146 286,-198 428,-198 428,-146 286,-146"/>
</g>
<!-- AppComponent -->
<g id="node1" class="node">
<title>AppComponent</title>
<polygon fill="#ffffb3" stroke="#000000" points="129.9399,-122 24.0601,-122 24.0601,-86 129.9399,-86 129.9399,-122"/>
<text text-anchor="middle" x="77" y="-99.8" font-family="Times,serif" font-size="14.00" fill="#000000">AppComponent</text>
</g>
<!-- AppModule -->
<g id="node2" class="node">
<title>AppModule</title>
<polygon fill="#8dd3c7" stroke="#000000" points="180.6571,-190 177.6571,-194 156.6571,-194 153.6571,-190 97.3429,-190 97.3429,-154 180.6571,-154 180.6571,-190"/>
<text text-anchor="middle" x="139" y="-167.8" font-family="Times,serif" font-size="14.00" fill="#000000">AppModule</text>
</g>
<!-- AppComponent&#45;&gt;AppModule -->
<g id="edge1" class="edge">
<title>AppComponent&#45;&gt;AppModule</title>
<path fill="none" stroke="#000000" d="M113.4457,-122.2228C113.4457,-122.2228 113.4457,-143.7269 113.4457,-143.7269"/>
<polygon fill="#000000" stroke="#000000" points="109.9457,-143.7269 113.4457,-153.7269 116.9457,-143.727 109.9457,-143.7269"/>
</g>
<!-- AppComponent  -->
<g id="node4" class="node">
<title>AppComponent </title>
<polygon fill="#80b1d3" stroke="#000000" points="193.439,-258 84.561,-258 84.561,-222 193.439,-222 193.439,-258"/>
<text text-anchor="middle" x="139" y="-235.8" font-family="Times,serif" font-size="14.00" fill="#000000">AppComponent </text>
</g>
<!-- AppModule&#45;&gt;AppComponent  -->
<g id="edge3" class="edge">
<title>AppModule&#45;&gt;AppComponent </title>
<path fill="none" stroke="#000000" stroke-dasharray="1,5" d="M139,-190.2228C139,-190.2228 139,-211.7269 139,-211.7269"/>
<polygon fill="#000000" stroke="#000000" points="135.5001,-211.7269 139,-221.7269 142.5001,-211.727 135.5001,-211.7269"/>
</g>
<!-- UploadModule -->
<g id="node3" class="node">
<title>UploadModule</title>
<polygon fill="#8dd3c7" stroke="#000000" points="254.2619,-122 251.2619,-126 230.2619,-126 227.2619,-122 153.7381,-122 153.7381,-86 254.2619,-86 254.2619,-122"/>
<text text-anchor="middle" x="204" y="-99.8" font-family="Times,serif" font-size="14.00" fill="#000000">UploadModule</text>
</g>
<!-- UploadModule&#45;&gt;AppModule -->
<g id="edge2" class="edge">
<title>UploadModule&#45;&gt;AppModule</title>
<path fill="none" stroke="#000000" d="M167.2237,-122.2228C167.2237,-122.2228 167.2237,-143.7269 167.2237,-143.7269"/>
<polygon fill="#000000" stroke="#000000" points="163.7238,-143.7269 167.2237,-153.7269 170.7238,-143.727 163.7238,-143.7269"/>
</g>
<!-- UploadComponent  -->
<g id="node6" class="node">
<title>UploadComponent </title>
<polygon fill="#fb8072" stroke="#000000" points="420.0442,-190 293.9558,-190 293.9558,-154 420.0442,-154 420.0442,-190"/>
<text text-anchor="middle" x="357" y="-167.8" font-family="Times,serif" font-size="14.00" fill="#000000">UploadComponent </text>
</g>
<!-- UploadModule&#45;&gt;UploadComponent  -->
<g id="edge5" class="edge">
<title>UploadModule&#45;&gt;UploadComponent </title>
<path fill="none" stroke="#000000" stroke-dasharray="5,2" d="M223.9251,-122.2228C223.9251,-142.3652 223.9251,-172 223.9251,-172 223.9251,-172 283.9699,-172 283.9699,-172"/>
<polygon fill="#000000" stroke="#000000" points="283.97,-175.5001 293.9699,-172 283.9699,-168.5001 283.97,-175.5001"/>
</g>
<!-- UploadComponent -->
<g id="node5" class="node">
<title>UploadComponent</title>
<polygon fill="#ffffb3" stroke="#000000" points="566.045,-190 443.955,-190 443.955,-154 566.045,-154 566.045,-190"/>
<text text-anchor="middle" x="505" y="-167.8" font-family="Times,serif" font-size="14.00" fill="#000000">UploadComponent</text>
</g>
<!-- UploadComponent&#45;&gt;UploadModule -->
<g id="edge4" class="edge">
<title>UploadComponent&#45;&gt;UploadModule</title>
<path fill="none" stroke="#000000" d="M505,-153.7772C505,-133.6348 505,-104 505,-104 505,-104 264.3806,-104 264.3806,-104"/>
<polygon fill="#000000" stroke="#000000" points="264.3807,-100.5001 254.3806,-104 264.3806,-107.5001 264.3807,-100.5001"/>
</g>
</g>
</svg>
